<svg enable-background="new 0 0 71.6 68.4" viewBox="0 0 71.6 68.4" xmlns="http://www.w3.org/2000/svg"><path d="m21.6 14.4-9.9 12.7c-5.3 6.7-5.3 16.1-.1 22.9l8.1 10.4c4.8 6.2 13.1 8.7 20.5 6.3l17.1-5.7c7.5-2.5 12.6-9.4 12.8-17.2l.3-13.2c.2-8.5-5.4-16.1-13.7-18.4l-15.5-4.2c-7.3-2-15 .5-19.6 6.4z" fill="#e8eff9"/><g fill="none" stroke="#222" stroke-linecap="round" stroke-linejoin="round" stroke-width="2.5"><path d="m26 16.7h-8.4v-3.7c-.1-1 .6-2 1.6-2.1h.3 5.8v-7.9h-8.3c-7.7 0-9.1 5.8-9.1 9.5v4.2h-5.9v7.8h5.9v23.5h9.8v-23.5h7.5z"/><circle cx="43.3" cy="26.7" r="4.3"/><path d="m37.3 35.4c3.6-3.4 9.2-3.2 12.5.4 1 1.1 1.8 2.4 2.1 3.9h-11.4"/><circle cx="30.3" cy="41.8" r="4.3"/><path d="m38.9 54.7c-1.2-4.8-6.1-7.6-10.8-6.4-3.2.8-5.6 3.3-6.4 6.4z"/></g></svg>