<?xml version="1.0" encoding="utf-8"?>
<!-- Generator: Adobe Illustrator 25.1.0, SVG Export Plug-In . SVG Version: 6.00 Build 0)  -->
<svg version="1.1" id="Layer_1" xmlns="http://www.w3.org/2000/svg" xmlns:xlink="http://www.w3.org/1999/xlink" x="0px" y="0px"
	 viewBox="0 0 32 32" style="enable-background:new 0 0 32 32;" xml:space="preserve">
<style type="text/css">
	.st0{fill-rule:evenodd;clip-rule:evenodd;fill:#E74C3C;}
	.st1{fill:#FFFFFF;}
	.st2{opacity:0.75;fill:#FFFFFF;}
	.st3{opacity:0.5;fill:#FFFFFF;}
</style>
<desc>Created with Sketch.</desc>
<g id="Page-1">
	<path class="st0" d="M29,32H3c-1.7,0-3-1.3-3-3V3c0-1.7,1.3-3,3-3h26c1.7,0,3,1.3,3,3v26C32,30.7,30.7,32,29,32z"/>
</g>
<g>
	<path class="st1" d="M13.5,16l-4.3-5.4l0,0c-0.1-0.1-0.2-0.1-0.3-0.1H6.1l0,0c-0.2,0-0.4,0.2-0.4,0.5c0,0.1,0,0.3,0.1,0.3l4,4.9
		l0,0c0,0,0,0.1,0,0.2l-4,4.9l0,0c-0.2,0.2-0.2,0.5,0,0.7c0.1,0.1,0.2,0.1,0.3,0.1H9l0,0c0.1,0,0.2-0.1,0.3-0.1l4.3-5.4l0,0
		C13.7,16.4,13.7,16.1,13.5,16z"/>
	<path class="st2" d="M20.1,16l-4.3-5.4l0,0c-0.1-0.1-0.2-0.1-0.3-0.1h-2.8l0,0c-0.2,0-0.4,0.2-0.4,0.5c0,0.1,0,0.3,0.1,0.3l4,4.9
		l0,0c0,0,0,0.1,0,0.2l-4,4.9l0,0c-0.2,0.2-0.2,0.5,0,0.7c0.1,0.1,0.2,0.1,0.3,0.1h2.8l0,0c0.1,0,0.2-0.1,0.3-0.1l4.3-5.4l0,0
		C20.2,16.4,20.2,16.1,20.1,16z"/>
	<path class="st3" d="M26.7,16l-4.3-5.4l0,0c-0.1-0.1-0.2-0.1-0.3-0.1h-2.8l0,0c-0.2,0-0.4,0.2-0.4,0.5c0,0.1,0,0.3,0.1,0.3l4,4.9
		l0,0c0,0,0,0.1,0,0.2l-4,4.9l0,0c-0.2,0.2-0.2,0.5,0,0.7c0.1,0.1,0.2,0.1,0.3,0.1h2.8l0,0c0.1,0,0.2-0.1,0.3-0.1l4.3-5.4l0,0
		C26.8,16.4,26.8,16.1,26.7,16z"/>
</g>
</svg>
