<svg viewBox="0 -28 512.001 512" xmlns="http://www.w3.org/2000/svg">
    <path class="outline" d="M369,30c31.1,0,59.6,12.4,80.4,34.9c21.1,22.9,32.7,54.4,32.7,89c0,17.9-3.3,34.8-10.2,51.6c-7.2,17.6-18.2,35.3-33.7,54 c-29.3,35.4-73,72.6-123.5,115.6l-0.4,0.3c-17.6,15-37.5,32-58.3,50.1l0,0c-20.9-18.2-40.9-35.3-58.6-50.4l0,0 c-50.5-43-94.1-80.2-123.5-115.6c-15.5-18.7-26.5-36.4-33.7-54C33.3,188.7,30,171.8,30,153.9c0-34.5,11.6-66.1,32.7-89 C83.4,42.4,112,30,143,30c22.8,0,43.6,7.2,62.1,21.5c9.6,7.4,18.4,16.6,26.3,27.4c5.7,7.8,14.9,12.5,24.6,12.5 c9.7,0,18.9-4.7,24.6-12.5c7.8-10.8,16.7-20,26.3-27.4C325.3,37.2,346.2,30,369,30 M369,0c-29.6,0-56.6,9.3-80.4,27.8 c-11.9,9.2-22.6,20.4-32.2,33.5c-0.1,0.1-0.2,0.2-0.4,0.2s-0.3-0.1-0.4-0.2c-9.5-13.1-20.3-24.3-32.2-33.5C199.6,9.3,172.6,0,143,0 C103.5,0,67.1,15.8,40.6,44.6C14.4,73,0,111.8,0,153.9c0,43.3,16.1,82.9,50.8,124.7c31,37.4,75.5,75.4,127.1,119.3 c17.6,15,37.6,32,58.3,50.2c5.5,4.8,12.5,7.4,19.8,7.4c7.3,0,14.3-2.6,19.8-7.4c20.7-18.1,40.7-35.2,58.3-50.2 c51.6-43.9,96.1-81.9,127.1-119.3c34.6-41.8,50.8-81.4,50.8-124.7c0-42.1-14.4-80.9-40.6-109.3C444.9,15.8,408.5,0,369,0L369,0z"/>
    <path class="filled" d="M471.9,44.8C445.4,16.1,409,0.2,369.5,0.2c-29.6,0-56.6,9.3-80.4,27.8c-12,9.3-22.9,20.7-32.5,34 C246.9,48.7,236,37.3,224,28C200.1,9.6,173.1,0.2,143.5,0.2C104,0.2,67.6,16.1,41.1,44.8C14.9,73.2,0.5,112,0.5,154.1 c0,43.3,16.1,82.9,50.8,124.7c31,37.4,75.5,75.4,127.1,119.3c17.6,15,37.6,32,58.3,50.2c5.5,4.8,12.5,7.4,19.8,7.4 c7.3,0,14.3-2.6,19.8-7.4c20.7-18.1,40.7-35.2,58.3-50.2c51.6-43.9,96.1-81.9,127.1-119.3c34.6-41.8,50.8-81.4,50.8-124.7 C512.5,112,498.1,73.2,471.9,44.8z"/>
</svg>