<svg viewBox="0 0 512 516.1" xmlns="http://www.w3.org/2000/svg">
    <g class="outline">
        <path class="stroke-color" d="M419.6,347.5L419.6,347.5L419.6,347.5c17.8,0,32.3,14.5,32.3,32.3c0,17.8-14.5,32.3-32.3,32.3l0,0h-21.5l0,0 c17.8,0,32.3,14.5,32.3,32.3c0,17.8-14.5,21.5-32.3,21.5H258.2c-61.3,0-75.3-10.8-150.6-21.5V261.5c52.7,0,139.9-96.8,139.9-182.9 c0-34,47.1-46.7,64.6,15.5c10.8,38.3-21.5,113.6-21.5,113.6h172.1l0,0c17.8,0,32.3,14.5,32.3,32.3c0,17.8-14.5,43-32.3,43h-21.5 l0,0c17.8,0,32.3,14.5,32.3,32.3s-14.5,32.3-32.3,32.3H419.6" style="fill:none;stroke-width:30;stroke-linecap:round;stroke-linejoin:round;"/>
        <path d="M77.6,259.2v198.2H30V259.2H77.6 M107.6,229.2H0v258.2h107.6V229.2L107.6,229.2z"/>
        <line class="stroke-color" x1="53.4" y1="433.6" x2="53.4" y2="433.6" style="fill:none;stroke-width:15;stroke-linecap:round;stroke-linejoin:round;"/>
    </g>
    <g class="filled">
        <path class="stroke-color" d="M494.9,240c0-17.8-14.5-32.3-32.3-32.3H290.5c0,0,32.3-75.3,21.5-113.6c-17.5-62.2-64.6-49.5-64.6-15.5 c0,77-55.4,162.5-107.9,179.8v188.7c60.3,9.8,62.4,18.8,118.6,18.8h139.9c17.8,0,32.3-3.7,32.3-21.5c0-17.8-14.5-32.3-32.3-32.3 h21.5c17.8,0,32.3-14.5,32.3-32.3s-14.5-32.3-32.3-32.3h21.5c17.8,0,32.3-14.5,32.3-32.3c0-17.8-14.5-32.3-32.3-32.3h21.5 C480.5,283,494.9,257.8,494.9,240z" style="stroke-width:30;stroke-miterlimit:10;"/>
        <path d="M15,472.4V244.2h77.6v228.2H15z M53.5,403.6c-16.8,0-30.5,13.7-30.5,30.5c0,16.8,13.7,30.5,30.5,30.5s30.5-13.7,30.5-30.5 C84.1,417.3,70.4,403.6,53.5,403.6z"/>
        <path d="M77.6,259.2v136.2c-7-4.4-15.2-6.9-24-6.9c-8.6,0-16.7,2.4-23.5,6.6V259.2H77.6 M107.6,229.2H0v258.2h107.6V229.2 L107.6,229.2z M53.5,449.6c-8.6,0-15.5-7-15.5-15.5c0-8.6,7-15.5,15.5-15.5s15.5,7,15.5,15.5C69.1,442.7,62.1,449.6,53.5,449.6 L53.5,449.6z"/>
    </g>
</svg>