<svg enable-background="new 0 0 24.1 24" viewBox="0 0 24.1 24" xmlns="http://www.w3.org/2000/svg"><g fill="#1c66ab"><path d="m17.5 11.8-1.2 1.2c-.4.4-.4 1 0 1.4s1 .4 1.4 0l1.2-1.2c.7-.7 1.9-.7 2.6 0s.7 1.9 0 2.6l-1.2 1.2c-.4.4-.4 1 0 1.4s1 .4 1.4 0l1.2-1.2c1.5-1.5 1.5-3.9 0-5.4-1.4-1.5-3.9-1.5-5.4 0z"/><path d="m17.1 20.2-1.3 1.3c-.7.7-1.9.7-2.6 0s-.7-1.9 0-2.6l1.3-1.3c.4-.4.4-1 0-1.4s-1-.4-1.4 0l-1.3 1.3c-1.5 1.5-1.5 3.9 0 5.4s3.9 1.5 5.4 0l1.3-1.3c.4-.4.4-1 0-1.4s-1-.4-1.4 0z"/><path d="m19.7 15c-.4-.4-1-.4-1.4 0l-3.5 3.5c-.4.4-.4 1 0 1.4s1 .4 1.4 0l3.5-3.5c.4-.4.4-1 0-1.4z"/></g><path d="m7.5 18.5h-4.6c-.6 0-1-.4-1-1v-12.2c0-.2.2-.3.3-.3h19.5c.1 0 .2.1.2.2v3.3c0 .6.4 1 1 1s1-.4 1-1v-5.5c0-1.7-1.3-3-3-3h-18c-1.7 0-3 1.3-3 3v14.5c0 1.7 1.3 3 3 3h4.5c.6 0 1-.5 1-1 .1-.5-.4-1-.9-1zm2.1-16.5c.3-.5.8-.6 1.3-.4.2.1.3.2.4.4.1.1.1.3.2.5 0 .2-.1.4-.2.5-.3.5-.9.7-1.3.4-.2-.1-.3-.2-.4-.4-.1-.1-.2-.3-.2-.5s.1-.3.2-.5zm-3.5 0c.3-.5.8-.6 1.3-.4.2.1.3.2.4.4.1.1.1.3.2.5 0 .2-.1.4-.2.5-.3.5-.9.7-1.3.4-.2-.1-.3-.2-.4-.4-.1-.1-.2-.3-.2-.5s.1-.3.2-.5zm-3.6.1c.2-.4.5-.6.9-.6s.7.2.9.5c.1.1.1.3.2.5 0 .2-.1.4-.2.5-.3.5-.9.7-1.3.4-.2-.1-.3-.2-.4-.4-.1-.1-.2-.3-.2-.5 0-.1.1-.3.1-.4z" fill="#272d31"/></svg>