<svg enable-background="new 0 0 2287 2500" viewBox="0 0 2287 2500" xmlns="http://www.w3.org/2000/svg"><path d="m1129.6 5.1c-1.3 1.3-20.8 3.8-43.5 6.3-22.1 2.5-46.6 6.9-54.9 10.1-8.2 3.2-14.5 4.4-14.5 2.5 0-1.3-26.5 5-58 13.3-32.2 8.8-63 17-68.1 18.3-49.6 11.9-173.2 62.3-264.6 109-279.9 141.8-482.9 356.1-561 592.5-57.4 173.9-53 390.2 10.7 513.7 37.8 75 105.2 126.7 191 146.9 39.7 10 150 7.5 198.5-3.2 175.2-40.3 402.8-168.9 523.2-295.6l20.2-20.8 17 25.2c33.4 48.6 66.8 152 77.5 240.2 7.6 64.3 3.2 216.8-7.6 247.1-1.3 4.4-3.8 18.3-5.7 30.3-12.6 88.9-66.2 243.3-98.3 286.2-49.1 64.9-69.3 131.7-67.5 218.1 2.5 71.2 25.2 121.6 78.8 174.6 34.6 34 95.8 71.3 134.9 80.7 12.6 3.2 15.1 7.6 14.5 27.1-.6 12.6 1.9 27.1 5 30.9 7.6 10.1 51.7 10.7 102.1 1.3 20.8-3.8 52.3-7.6 69.3-8.2 30.9-.6 31.5-.6 33.4 19.6 1.2 13.9 6.3 21.4 14.5 23.9 15.1 5.1 89.5-.6 117.2-8.8 20.8-6.3 66.8-5 141.8 2.5 42.2 4.4 49.1 3.8 53-5 6.9-18.3-10.7-56.1-41-87-29-30.3-38.4-34.1-76.3-30.9-10.7.6 0-8.2 34-27.8 27.1-15.7 58.7-35.9 70-44.1l20.8-15.8 34.6 18.3c43.5 24 90.2 29.6 99 12.6 5-9.4 3.1-13.8-8.2-23.3-17-13.3-48.5-54.2-48.5-62.4 0-5.7 50.4-37.2 53-32.8.6 1.3 7.6 15.7 15.1 32.2 18.3 39.7 64.3 88.2 99 104.6 53.6 25.2 97.7 27.7 97.7 5 0-3.8-9.5-17-21.4-29.6-32.2-32.2-64.9-91.4-73.8-129.9-4.4-18.9-6.3-35.3-4.4-37.2s46.6-18.3 100.2-37.2c114.8-39.7 143.1-51.1 186.6-75.6 38.5-21.4 54.2-46.6 44.8-73.8-5.7-17-42.2-58-76.3-86.3-24.6-20.2-97.7-57.4-122.3-61.7-20.2-3.8-20.8-5.1-21.4-34.7-.6-17-1.9-34-2.5-37.2-.6-3.8-1.9-11.3-2.5-17.6-1.3-20.2-16.4-34.7-30.3-30.3-11.3 3.8-25.8 27.7-31.5 51-5.7 24.6-20.2 68.1-20.8 63-.6-3.8-1.9-18.9-3.2-34.7-8.8-94.5-51-79.4-73.7 26.5l-7.6 35.3-28.4 5c-80 12.6-196.1 12.6-240.2-.6-18.9-5.7-49.1-13.9-66.8-18.9-33.4-8.8-109-18.3-148.7-17.7-13.3 0-24-1.9-24-4.4 0-1.9 29-26.5 63.7-53 324.6-249.6 546.5-533.3 602-769.7 5.7-24.6 11.3-49.8 13.2-56.7s3.8-49.1 4.4-93.9c3.8-230.1-67.5-426.1-208-569.8-125.1-128-299.1-208.7-503.4-233.9-46.6-5.6-207.3-8.8-211.8-3.7zm996.7 1875.9c7.6 13.3 2.5 29-12 36.5-27.7 14.5-56.7-28.3-30.9-46 14.5-10.6 34.6-6.2 42.9 9.5z" fill="#563f5b"/></svg>