<svg enable-background="new 0 0 34.6 25.7" viewBox="0 0 34.6 25.7" xmlns="http://www.w3.org/2000/svg"><g transform="matrix(1.1172997 0 0 1.1172997 -1.67595 -6.703798)"><path d="m1.5 29 14.5-23h9v3.2l-12.5 19.8" fill="#fbbc04"/><path d="m25 29h-9v-23h9z" fill="#1a73e8"/><path d="m31.5 22.5c0 3.6-2.9 6.5-6.5 6.5v-13c3.6 0 6.5 2.9 6.5 6.5z" fill="#34a853"/><path d="m25 29c-3.6 0-6.5-2.9-6.5-6.5s2.9-6.5 6.5-6.5z" fill="#0d652d"/><path d="m30 11c0 2.8-2.2 5-5 5v-10c2.8 0 5 2.2 5 5z" fill="#1a73e8"/><path d="m25 16c-2.8 0-5-2.2-5-5s2.2-5 5-5z" fill="#174ea6"/><path d="m2 10.5c0-2.5 2-4.5 4.5-4.5s4.5 2 4.5 4.5-2 4.5-4.5 4.5-4.5-2-4.5-4.5z" fill="#ea4335"/></g></svg>