<svg enable-background="new 0 0 22.5 24" viewBox="0 0 22.5 24" xmlns="http://www.w3.org/2000/svg"><path d="m11.9 20.2h-3.9c-.4 0-.8-.3-.8-.8 0-.4.3-.8.8-.8h1c.1 0 .2-.1.2-.2v-6.4c0-.1-.1-.2-.2-.2h-2c-.1 0-.2.1-.2.2v1c0 .4-.3.8-.8.8-.4 0-.8-.3-.8-.8v-1.5c0-.7.6-1.2 1.2-1.2h7c.7 0 1.2.6 1.2 1.2v1.5c0 .4-.3.8-.8.8-.4 0-.8-.3-.8-.8v-1c0-.1-.1-.2-.2-.2h-2c-.1 0-.2.1-.2.2v6.5c0 .1.1.2.2.2h.9c.4-3 2.9-5.4 6-5.4.7 0 1.4.1 2.1.4v-7.4c0-.5-.2-1-.6-1.4l-4.3-4.3c-.2-.4-.7-.6-1.2-.6h-11.7c-1.1 0-2 .9-2 2v20c0 1.1.9 2 2 2h11.9c-1.1-1-1.8-2.3-2-3.8z" fill="#272d31"/><path d="m17.9 14.9c-2.5 0-4.5 2-4.5 4.5s2 4.5 4.5 4.5 4.5-2 4.5-4.5c.1-2.4-2-4.5-4.5-4.5zm1.9 4c-.1.1-.2.2-.3.2h-.8c-.1 0-.1 0-.1.1v2.7c0 .3-.3.6-.6.6s-.6-.3-.6-.6v-2.7c0-.1 0-.1-.1-.1h-.8c-.2 0-.4-.2-.4-.4 0-.1 0-.2.1-.3l1.5-1.7c.1-.2.4-.2.6 0l1.5 1.7c0 .2.1.3 0 .5z" fill="#329b4e"/></svg>