<svg enable-background="new 0 0 246.7 263.1" viewBox="0 0 246.7 263.1" xmlns="http://www.w3.org/2000/svg"><path d="m161.8 110c-1.8-2.5-2.8-5.5-2.8-8.6v-77.9c0-2.1 1.7-3.7 3.7-3.7h3.5c5.4 0 9.9-4.4 9.9-9.9 0-5.5-4.5-9.9-9.9-9.9h-15.9c-6.2 0-11.2 5-11.2 11.2v90.1c0 3.7 1.2 7.4 3.3 10.4l78.3 111.9c6 8.6-.1 20.3-10.6 20.3h-174.3c-10.5 0-16.6-11.9-10.5-20.4l79.1-111.1c2.2-3.1 3.4-6.7 3.4-10.5v-90.6c0-6.2-5-11.2-11.2-11.2h-15.6c-5.4 0-9.9 4.4-9.9 9.9 0 5.4 4.4 9.9 9.9 9.9h3.7c2.1 0 3.7 1.7 3.7 3.7v77.1c0 3.5-1.1 7-3.2 9.9l-80.1 110c-12.8 17.7-.2 42.5 21.7 42.5l193.1-.1c21.8 0 34.5-24.8 21.7-42.5z"/><g fill="#23a8e0"><path d="m76.9 172.3-28.2 39.6c-7.5 10.5-3 19.1 9.9 19.1h129.9c12.8 0 17.3-8.6 9.9-19.1l-28.2-40.4c-7.4-7.4-19.7 14.4-46.8-.8 0 .2-29.4-15.4-46.5 1.6z"/><circle cx="143.3" cy="154.5" r="9.8"/><circle cx="111.8" cy="146.1" r="7.8"/><circle cx="129.1" cy="129.8" r="4.2"/></g></svg>