<svg height="64" viewBox="0 0 13.946 16" width="55.784" xmlns="http://www.w3.org/2000/svg"><path d="m3.84 0h4.8v4.8h-4.8z" fill="#f25022"/><path d="m9.145 0h4.8v4.8h-4.8z" fill="#7fba00"/><path d="m3.84 5.305h4.8v4.8h-4.8z" fill="#00a4ef"/><path d="m9.145 5.305h4.8v4.8h-4.8z" fill="#ffb900"/><path d="m7.57 11.12a1.5 1.5 0 0 1 -1.8.207 2.286 2.286 0 0 0 -1.9 0 1.415 1.415 0 0 1 -1.794-.207c-2.86-2.944-2.438-7.429.813-7.6a15.8 15.8 0 0 1 1.8.469 7.748 7.748 0 0 1 2.09-.489 2.545 2.545 0 0 1 1.994 1.053 2.32 2.32 0 0 0 .284 4.179 5.932 5.932 0 0 1 -1.488 2.4zm-2.944-7.63a2.4 2.4 0 0 1 2.195-2.49 2.318 2.318 0 0 1 -2.195 2.49z" transform="translate(-.164 4.456)"/></svg>